<svg xmlns="http://www.w3.org/2000/svg" xmlns:xlink="http://www.w3.org/1999/xlink" width="1280" height="853" viewBox="0 0 1280 853"><defs><style>.a{fill:none;}.b{clip-path:url(#a);}.c{fill:url(#b);}.d,.e{fill:#3cc;}.d{mix-blend-mode:soft-light;isolation:isolate;}</style><clipPath id="a"><rect class="a" width="1280" height="853" transform="translate(0 0)"/></clipPath><linearGradient id="b" x1="0.128" y1="1.148" x2="0.895" y2="-0.188" gradientUnits="objectBoundingBox"><stop offset="0" stop-color="#269999"/><stop offset="0.999" stop-color="#3cc"/></linearGradient></defs><g transform="translate(-770 -0.338)"><g class="b" transform="translate(770 0.338)"><g transform="translate(-34.058)"><rect class="c" width="1280" height="853" transform="translate(34.058 0)"/><path class="d" d="M57.4,0h81.121a57.4,57.4,0,0,1,57.4,57.4V720.263a0,0,0,0,1,0,0H0a0,0,0,0,1,0,0V57.4A57.4,57.4,0,0,1,57.4,0Z" transform="translate(0 132.728)"/><path class="d" d="M57.4,0h81.121a57.4,57.4,0,0,1,57.4,57.4V720.263a0,0,0,0,1,0,0H0a0,0,0,0,1,0,0V57.4A57.4,57.4,0,0,1,57.4,0Z" transform="translate(1404.543 720.355) rotate(-180)"/><path class="d" d="M1134.778,177.971h0a97.957,97.957,0,0,0-97.958,97.958V727.567h195.915V275.929A97.956,97.956,0,0,0,1134.778,177.971Z" transform="translate(-547.389 125.424)"/><path class="e" d="M57.4,0h81.121a57.4,57.4,0,0,1,57.4,57.4V361.863a0,0,0,0,1,0,0H0a0,0,0,0,1,0,0V57.4A57.4,57.4,0,0,1,57.4,0Z" transform="translate(247.466 491.128)"/><path class="d" d="M1275.072,549.85h0a97.958,97.958,0,0,0,97.958-97.958V.254H1177.114V451.893A97.957,97.957,0,0,0,1275.072,549.85Z" transform="translate(-448.248 -0.163)"/><path class="d" d="M57.4,0h81.121a57.4,57.4,0,0,1,57.4,57.4V361.863a0,0,0,0,1,0,0H0a0,0,0,0,1,0,0V57.4A57.4,57.4,0,0,1,57.4,0Z" transform="translate(1166.746 361.955) rotate(180)"/><path class="d" d="M770.052,791.829l-.126-303.3s119.1-171.643,302.293-171.643c267.563,0,298.095,180.637,538.958,180.637S2050.5,87.035,2050.5,87.035l-.446,704.794Z" transform="translate(-735.994 61.162)"/><path class="d" d="M769.926,193.38s171.245,317.193,442.641,317.193c264.61,0,309.62-244.652,520.612-244.652,175.747,0,316.873,175.959,316.873,175.959v274.8h-1280Z" transform="translate(-735.994 136.313)"/></g></g></g></svg>