<svg xmlns="http://www.w3.org/2000/svg" width="44.544" height="20.799" viewBox="0 0 44.544 20.799"><defs><style>.a{fill:#bfbfbf;}</style></defs><g transform="translate(-0.02 0.011)"><path class="a" d="M91,273.31v-1.541h.684V265.6a.817.817,0,0,1,.87-.874c.93,0,1.86,0,2.79.01a4.391,4.391,0,0,1,1.382.242,2.875,2.875,0,0,1,1.856,1.785,6.141,6.141,0,0,1,.037,4.276,3.178,3.178,0,0,1-2.838,2.206,10.5,10.5,0,0,1-1.052.062c-1.178.007-2.356,0-3.534,0Zm2.415-1.524c.684-.02,1.357,0,2.021-.071a1.681,1.681,0,0,0,1.541-1.284,5.079,5.079,0,0,0-.023-2.915,1.629,1.629,0,0,0-1.51-1.245c-.662-.051-1.331-.023-2-.029-.008,0-.016.01-.03.02Z" transform="translate(-90.89 -264.74)"/><path class="a" d="M95.448,553.932h-1.2c-.14,0-.311.047-.408-.017s-.095-.24-.137-.367a1.138,1.138,0,0,0-.717-.741,2.5,2.5,0,0,0-1.7-.031.909.909,0,0,0-.644.694.715.715,0,0,0,.292.789,3.3,3.3,0,0,0,1.168.471c.741.2,1.487.386,2.216.627a1.912,1.912,0,0,1,1.322,1.27,2.61,2.61,0,0,1-1.688,3.4,4.927,4.927,0,0,1-3.585-.14A2.647,2.647,0,0,1,88.8,557.4h1.717c.022.087.041.176.067.264a1.333,1.333,0,0,0,.9.961,3.087,3.087,0,0,0,1.741.06.967.967,0,0,0,.81-.975.568.568,0,0,0-.229-.486,3.174,3.174,0,0,0-.767-.451c-.589-.2-1.2-.338-1.8-.511-.351-.1-.7-.2-1.044-.335a1.911,1.911,0,0,1-1.224-1.5A3.084,3.084,0,0,1,89,553.06a2.086,2.086,0,0,1,1.3-1.494,4.733,4.733,0,0,1,3.609-.035,2.428,2.428,0,0,1,1.548,2.316A.5.5,0,0,1,95.448,553.932Z" transform="translate(-88.78 -539.511)"/><path class="a" d="M571.829,319.355h.791v1.533h-2.4v-.663l-.061-.046a.421.421,0,0,1-.046.109,2.134,2.134,0,0,1-1.6.823,3.391,3.391,0,0,1-.891-.043,1.567,1.567,0,0,1-1.27-1.265,2.85,2.85,0,0,1-.03-1.183,1.623,1.623,0,0,1,1.149-1.281,7.525,7.525,0,0,1,1.48-.31,5.185,5.185,0,0,0,.842-.189.491.491,0,0,0,.4-.522.59.59,0,0,0-.479-.589,2.012,2.012,0,0,0-1-.015.734.734,0,0,0-.636.76.6.6,0,0,1-.012.068h-1.561a1.888,1.888,0,0,1,.644-1.607,2.483,2.483,0,0,1,1.387-.556,4.883,4.883,0,0,1,2.066.18,2.363,2.363,0,0,1,.436.2,1.475,1.475,0,0,1,.792,1.359v3.241Zm-1.62-1.516c-.5.126-.989.24-1.469.372a2.307,2.307,0,0,0-.513.209.7.7,0,0,0-.331.759.644.644,0,0,0,.5.6,1.78,1.78,0,0,0,.626.033,1.246,1.246,0,0,0,1.087-.824A3.072,3.072,0,0,0,570.209,317.839Z" transform="translate(-546.766 -312.33)"/><path class="a" d="M310.489,316.525h-1.548a1.854,1.854,0,0,1,1.074-1.9,3.527,3.527,0,0,1,1.676-.3,4.218,4.218,0,0,1,1.413.238,1.6,1.6,0,0,1,1.1,1.108,1.909,1.909,0,0,1,.05.444c0,1.008,0,2.015,0,3.023v.2h.794v1.536h-2.408v-.712c-.058.063-.086.09-.11.122a2.135,2.135,0,0,1-1.592.812,3.447,3.447,0,0,1-.892-.043,1.55,1.55,0,0,1-1.238-1.15,2.763,2.763,0,0,1-.049-1.363,1.558,1.558,0,0,1,.964-1.15,5.282,5.282,0,0,1,1.408-.347c.3-.044.6-.1.9-.153a1.044,1.044,0,0,0,.245-.092.482.482,0,0,0,.338-.5.574.574,0,0,0-.408-.563,1.925,1.925,0,0,0-1.173-.007.706.706,0,0,0-.531.67A.889.889,0,0,1,310.489,316.525Zm2.175,1.259c-.293.093-.531.178-.775.245s-.505.1-.753.175a2.236,2.236,0,0,0-.5.208.709.709,0,0,0-.32.765.644.644,0,0,0,.511.594,1.942,1.942,0,0,0,.612.031,1.234,1.234,0,0,0,1.125-.955A9.252,9.252,0,0,0,312.664,317.784Z" transform="translate(-299.7 -312.315)"/><path class="a" d="M697.54,608.784h1.651v.708a.52.52,0,0,0,.075-.055,2.35,2.35,0,0,1,2.044-.822,1.912,1.912,0,0,1,1.417.587,2.052,2.052,0,0,1,.466,1.379c.013.935.008,1.87,0,2.8,0,.157.038.21.2.2s.348,0,.53,0v1.535h-2.416V611.23a2.912,2.912,0,0,0-.037-.446.8.8,0,0,0-.807-.767,1.216,1.216,0,0,0-1.428,1.224c-.022.748-.006,1.5-.006,2.245a.773.773,0,0,0,.011.087h.7v1.541H697.54Z" transform="translate(-672.678 -594.587)"/><path class="a" d="M1034.784,611.034a1.915,1.915,0,0,0,.294,1.038,1.037,1.037,0,0,0,.747.449,1.233,1.233,0,0,0,1.4-.607.163.163,0,0,1,.115-.078c.516,0,1.033,0,1.551,0a.18.18,0,0,1,.05.02,2.76,2.76,0,0,1-.93,1.478,3.319,3.319,0,0,1-3.782.087,3.005,3.005,0,0,1-1.081-1.79,4.669,4.669,0,0,1,.16-2.681,2.665,2.665,0,0,1,2.506-1.749,3.533,3.533,0,0,1,1.6.271,2.591,2.591,0,0,1,1.487,1.955,12.846,12.846,0,0,1,.132,1.444c.01.125-.044.166-.172.163-1.292,0-2.583,0-3.874,0Zm2.484-1.112a1.213,1.213,0,0,0-.524-1.134,1.267,1.267,0,0,0-1.959,1.135Z" transform="translate(-994.473 -593.234)"/><path class="a" d="M523.884,610.934a1.46,1.46,0,0,0,.632,1.358,1.441,1.441,0,0,0,1.506-.119,2.78,2.78,0,0,0,.278-.348c.029-.036.072-.086.11-.087.531-.006,1.061,0,1.62,0-.034.109-.057.2-.09.291a2.683,2.683,0,0,1-2.216,1.8,3.44,3.44,0,0,1-1.551-.071,2.54,2.54,0,0,1-1.685-1.469,4.362,4.362,0,0,1-.037-3.565,2.57,2.57,0,0,1,2.419-1.615,3.461,3.461,0,0,1,1.547.234,2.664,2.664,0,0,1,1.57,1.964,5.753,5.753,0,0,1,.127,1.507c0,.14-.087.125-.177.125h-4.053Zm2.478-1.112a1.236,1.236,0,0,0-.52-1.119,1.293,1.293,0,0,0-1.423,0,1.333,1.333,0,0,0-.552,1.121Z" transform="translate(-504.386 -593.134)"/><path class="a" d="M779.12,279.84h16.36v1.525H779.12Z" transform="translate(-750.929 -279.235)"/><path class="a" d="M779.42,357.56h16.347v1.524H779.42Z" transform="translate(-751.216 -353.783)"/><path class="a" d="M779.37,436.854V435.33h16.349v1.524Z" transform="translate(-751.169 -428.379)"/><path class="a" d="M869.506,609.648h-1.659c-.026-.1-.046-.195-.077-.286a.988.988,0,0,0-.871-.731,1.068,1.068,0,0,0-1.119.5,2.262,2.262,0,0,0-.288,1.018,3.69,3.69,0,0,0,.109,1.442,1.166,1.166,0,0,0,.84.888,1.083,1.083,0,0,0,1.384-.927c.033-.151.089-.187.233-.183.429.009.857,0,1.286,0h.182a2.85,2.85,0,0,1-.317,1.183,2.558,2.558,0,0,1-1.933,1.371,3.557,3.557,0,0,1-1.445-.043,2.459,2.459,0,0,1-1.767-1.491,4.438,4.438,0,0,1,0-3.583,2.593,2.593,0,0,1,2.432-1.6,3.294,3.294,0,0,1,1.645.282,2.366,2.366,0,0,1,1.336,1.822c.013.076.022.153.031.23A1.046,1.046,0,0,1,869.506,609.648Z" transform="translate(-832.042 -593.235)"/><path class="a" d="M287.419,609.679h-1.241c-.134,0-.3.041-.394-.02-.082-.051-.091-.222-.135-.338a.978.978,0,0,0-.853-.669,1.07,1.07,0,0,0-1.092.462,2.03,2.03,0,0,0-.3.9,3.865,3.865,0,0,0,.082,1.551,1.212,1.212,0,0,0,.737.9,1.083,1.083,0,0,0,1.463-.747c.032-.1.053-.208.082-.317h1.655a2.791,2.791,0,0,1-.327,1.191,2.635,2.635,0,0,1-2.36,1.4,3.135,3.135,0,0,1-1.525-.265,2.6,2.6,0,0,1-1.383-1.63,4.753,4.753,0,0,1,.015-3,2.692,2.692,0,0,1,2.58-1.871,3.646,3.646,0,0,1,1.313.163,2.387,2.387,0,0,1,1.65,2.037C287.4,609.5,287.407,609.577,287.419,609.679Z" transform="translate(-273.708 -593.257)"/><path class="a" d="M465,280.845v-1.179c.224,0,.44-.007.653,0,.133.006.179-.031.177-.171-.009-.511,0-1.022,0-1.547H467.5v.449c0,.372.005.744,0,1.115,0,.127.041.159.16.156.272-.007.544,0,.824,0v1.183c-.286,0-.568,0-.85,0-.1,0-.133.032-.133.133,0,1.126,0,2.251,0,3.377a.9.9,0,0,0,.009.089h.722v1.536h-2.4v-4.922c0-.247.024-.219-.228-.22C465.4,280.845,465.208,280.845,465,280.845Z" transform="translate(-449.628 -277.422)"/><path class="a" d="M452.21,612.91h1.676v.17q0,2.991,0,5.983c0,.143-.038.184-.181.182-.5-.009-.99,0-1.5,0Z" transform="translate(-437.36 -598.712)"/><path class="a" d="M453.8,558.954H452.14V557.42h1.55c.075,0,.13.006.129.1,0,.459,0,.919,0,1.378A.2.2,0,0,1,453.8,558.954Z" transform="translate(-437.293 -545.487)"/></g></svg>